<mxfile host="app.diagrams.net" agent="Mozilla/5.0 (Windows NT 10.0; Win64; x64) AppleWebKit/537.36 (KHTML, like Gecko) Chrome/131.0.0.0 Safari/537.36" version="25.0.3">
  <diagram name="Page-1" id="jukGEJpfdl_75eMkSJwo">
    <mxGraphModel dx="1734" dy="952" grid="1" gridSize="10" guides="1" tooltips="1" connect="1" arrows="1" fold="1" page="1" pageScale="1" pageWidth="850" pageHeight="1100" math="0" shadow="0">
      <root>
        <mxCell id="0" />
        <mxCell id="1" parent="0" />
        <mxCell id="sIwFbz2XPLbkxv_7MFUC-5" style="edgeStyle=orthogonalEdgeStyle;rounded=0;orthogonalLoop=1;jettySize=auto;html=1;entryX=0.5;entryY=0;entryDx=0;entryDy=0;" edge="1" parent="1" source="sIwFbz2XPLbkxv_7MFUC-1" target="sIwFbz2XPLbkxv_7MFUC-2">
          <mxGeometry relative="1" as="geometry" />
        </mxCell>
        <mxCell id="sIwFbz2XPLbkxv_7MFUC-6" value="1. sub margin" style="edgeLabel;html=1;align=center;verticalAlign=middle;resizable=0;points=[];fontSize=14;" vertex="1" connectable="0" parent="sIwFbz2XPLbkxv_7MFUC-5">
          <mxGeometry x="-0.1667" y="2" relative="1" as="geometry">
            <mxPoint x="-45" y="-20" as="offset" />
          </mxGeometry>
        </mxCell>
        <mxCell id="sIwFbz2XPLbkxv_7MFUC-7" style="edgeStyle=orthogonalEdgeStyle;rounded=0;orthogonalLoop=1;jettySize=auto;html=1;exitX=1;exitY=1;exitDx=0;exitDy=0;entryX=0.5;entryY=1;entryDx=0;entryDy=0;" edge="1" parent="1" source="sIwFbz2XPLbkxv_7MFUC-1" target="sIwFbz2XPLbkxv_7MFUC-3">
          <mxGeometry relative="1" as="geometry" />
        </mxCell>
        <mxCell id="sIwFbz2XPLbkxv_7MFUC-10" value="1. open fee" style="edgeLabel;html=1;align=center;verticalAlign=middle;resizable=0;points=[];fontSize=15;" vertex="1" connectable="0" parent="sIwFbz2XPLbkxv_7MFUC-7">
          <mxGeometry x="0.1524" y="-5" relative="1" as="geometry">
            <mxPoint x="-16" y="-145" as="offset" />
          </mxGeometry>
        </mxCell>
        <mxCell id="sIwFbz2XPLbkxv_7MFUC-12" style="edgeStyle=orthogonalEdgeStyle;rounded=0;orthogonalLoop=1;jettySize=auto;html=1;exitX=1;exitY=0;exitDx=0;exitDy=0;entryX=0.5;entryY=0;entryDx=0;entryDy=0;" edge="1" parent="1" source="sIwFbz2XPLbkxv_7MFUC-1" target="sIwFbz2XPLbkxv_7MFUC-3">
          <mxGeometry relative="1" as="geometry">
            <mxPoint x="693" y="372" as="targetPoint" />
          </mxGeometry>
        </mxCell>
        <mxCell id="sIwFbz2XPLbkxv_7MFUC-13" value="3. close fee" style="edgeLabel;html=1;align=center;verticalAlign=middle;resizable=0;points=[];fontSize=15;" vertex="1" connectable="0" parent="sIwFbz2XPLbkxv_7MFUC-12">
          <mxGeometry x="-0.1142" y="2" relative="1" as="geometry">
            <mxPoint x="35" y="88" as="offset" />
          </mxGeometry>
        </mxCell>
        <mxCell id="sIwFbz2XPLbkxv_7MFUC-1" value="user&#39;s balance" style="ellipse;whiteSpace=wrap;html=1;fontSize=18;fillColor=#B3FF66;" vertex="1" parent="1">
          <mxGeometry x="345" y="360" width="120" height="80" as="geometry" />
        </mxCell>
        <mxCell id="sIwFbz2XPLbkxv_7MFUC-15" style="edgeStyle=orthogonalEdgeStyle;rounded=0;orthogonalLoop=1;jettySize=auto;html=1;exitX=0.5;exitY=1;exitDx=0;exitDy=0;entryX=0;entryY=1;entryDx=0;entryDy=0;" edge="1" parent="1" source="sIwFbz2XPLbkxv_7MFUC-2" target="sIwFbz2XPLbkxv_7MFUC-1">
          <mxGeometry relative="1" as="geometry" />
        </mxCell>
        <mxCell id="sIwFbz2XPLbkxv_7MFUC-16" value="3. return margin" style="edgeLabel;html=1;align=center;verticalAlign=middle;resizable=0;points=[];fontSize=14;" vertex="1" connectable="0" parent="sIwFbz2XPLbkxv_7MFUC-15">
          <mxGeometry x="0.0208" y="4" relative="1" as="geometry">
            <mxPoint x="-49" y="-23" as="offset" />
          </mxGeometry>
        </mxCell>
        <mxCell id="sIwFbz2XPLbkxv_7MFUC-2" value="users&#39; margin" style="ellipse;whiteSpace=wrap;html=1;fontSize=18;fillColor=#CCFFCC;" vertex="1" parent="1">
          <mxGeometry x="50" y="370" width="120" height="80" as="geometry" />
        </mxCell>
        <mxCell id="sIwFbz2XPLbkxv_7MFUC-3" value="broker&#39;s fee" style="ellipse;whiteSpace=wrap;html=1;fontSize=18;fillColor=#66FFFF;" vertex="1" parent="1">
          <mxGeometry x="630" y="360" width="120" height="80" as="geometry" />
        </mxCell>
        <mxCell id="sIwFbz2XPLbkxv_7MFUC-4" value="broker&#39;s balance" style="ellipse;whiteSpace=wrap;html=1;fontSize=18;fillColor=#66FFFF;" vertex="1" parent="1">
          <mxGeometry x="345" y="620" width="120" height="80" as="geometry" />
        </mxCell>
        <mxCell id="sIwFbz2XPLbkxv_7MFUC-9" value="1. User LONG_OPEN USDJPY 0.01 lot at price 150&lt;div&gt;2. price hit 151&lt;/div&gt;&lt;div&gt;3. USER LONG_CLOSE USDJPY 0.01 lot at price 151&lt;/div&gt;" style="text;html=1;align=left;verticalAlign=middle;whiteSpace=wrap;rounded=0;fontSize=15;" vertex="1" parent="1">
          <mxGeometry x="230" y="200" width="400" height="30" as="geometry" />
        </mxCell>
        <mxCell id="sIwFbz2XPLbkxv_7MFUC-19" value="" style="endArrow=classic;startArrow=classic;html=1;rounded=0;entryX=0.5;entryY=1;entryDx=0;entryDy=0;exitX=0.5;exitY=0;exitDx=0;exitDy=0;" edge="1" parent="1" source="sIwFbz2XPLbkxv_7MFUC-4" target="sIwFbz2XPLbkxv_7MFUC-1">
          <mxGeometry width="50" height="50" relative="1" as="geometry">
            <mxPoint x="320" y="530" as="sourcePoint" />
            <mxPoint x="370" y="480" as="targetPoint" />
          </mxGeometry>
        </mxCell>
        <mxCell id="sIwFbz2XPLbkxv_7MFUC-20" value="3. pnl" style="edgeLabel;html=1;align=center;verticalAlign=middle;resizable=0;points=[];fontSize=14;" vertex="1" connectable="0" parent="sIwFbz2XPLbkxv_7MFUC-19">
          <mxGeometry x="-0.1444" y="-2" relative="1" as="geometry">
            <mxPoint x="23" as="offset" />
          </mxGeometry>
        </mxCell>
      </root>
    </mxGraphModel>
  </diagram>
</mxfile>
